HIERARCHY
ROOT Hips
{
    OFFSET 0.000000 0.000000 0.000000
    CHANNELS 6 Xposition Yposition Zposition Zrotation Xrotation Yrotation
    JOINT Spine
    {
        OFFSET -0.000000 7.236184 0.000000
        CHANNELS 3 Zrotation Xrotation Yrotation
        JOINT Spine1
        {
            OFFSET -0.000000 20.420147 0.000000
            CHANNELS 3 Zrotation Xrotation Yrotation
            JOINT Neck
            {
                OFFSET -0.000000 20.336288 1.848754
                CHANNELS 3 Zrotation Xrotation Yrotation
                JOINT Head
                {
                    OFFSET -0.000000 12.354461 -1.764923
                    CHANNELS 3 Zrotation Xrotation Yrotation
                    End Site
                    {
                        OFFSET -0.000000 22.061537 0.000000
                    }
                }
            }
            JOINT LeftShoulder
            {
                OFFSET 3.573296 18.396038 -0.314103
                CHANNELS 3 Zrotation Xrotation Yrotation
                JOINT LeftArm
                {
                    OFFSET 10.880760 0.000000 0.000000
                    CHANNELS 3 Zrotation Xrotation Yrotation
                    JOINT LeftForeArm
                    {
                        OFFSET 27.185530 0.000000 0.000000
                        CHANNELS 3 Zrotation Xrotation Yrotation
                        JOINT LeftHand
                        {
                            OFFSET 27.825975 0.000000 0.000000
                            CHANNELS 3 Zrotation Xrotation Yrotation
                            End Site
                            {
                                OFFSET 13.236923 0.000000 0.000000
                            }
                        }
                    }
                }
            }
            JOINT RightShoulder
            {
                OFFSET -3.474926 18.396038 -0.314103
                CHANNELS 3 Zrotation Xrotation Yrotation
                JOINT RightArm
                {
                    OFFSET -10.880760 0.000000 0.000000
                    CHANNELS 3 Zrotation Xrotation Yrotation
                    JOINT RightForeArm
                    {
                        OFFSET -27.185530 0.000000 0.000000
                        CHANNELS 3 Zrotation Xrotation Yrotation
                        JOINT RightHand
                        {
                            OFFSET -27.825975 0.000000 0.000000
                            CHANNELS 3 Zrotation Xrotation Yrotation
                            End Site
                            {
                                OFFSET -13.236923 0.000000 0.000000
                            }
                        }
                    }
                }
            }
        }
    }
    JOINT LeftUpLeg
    {
        OFFSET 8.824615 0.000000 0.000000
        CHANNELS 3 Zrotation Xrotation Yrotation
        JOINT LeftLeg
        {
            OFFSET -0.000000 -35.111282 0.000000
            CHANNELS 3 Zrotation Xrotation Yrotation
            JOINT LeftFoot
            {
                OFFSET -0.000000 -42.324711 0.000000
                CHANNELS 3 Zrotation Xrotation Yrotation
                JOINT LeftToeBase
                {
                    OFFSET -0.000000 -5.735999 13.236923
                    CHANNELS 3 Zrotation Xrotation Yrotation
                    End Site
                    {
                        OFFSET -0.000000 0.000000 3.529846
                    }
                }
            }
        }
    }
    JOINT RightUpLeg
    {
        OFFSET -8.824615 0.000000 0.000000
        CHANNELS 3 Zrotation Xrotation Yrotation
        JOINT RightLeg
        {
            OFFSET -0.000000 -35.111282 0.000000
            CHANNELS 3 Zrotation Xrotation Yrotation
            JOINT RightFoot
            {
                OFFSET -0.000000 -42.324711 0.000000
                CHANNELS 3 Zrotation Xrotation Yrotation
                JOINT RightToeBase
                {
                    OFFSET -0.000000 -5.735999 13.236923
                    CHANNELS 3 Zrotation Xrotation Yrotation
                    End Site
                    {
                        OFFSET -0.000000 0.000000 3.529846
                    }
                }
            }
        }
    }
}
MOTION
Frames:    11
Frame Time:    0.008333
-4.355635    83.213593    99.931358    -0.888825    -3.401649    178.540359    -2.129206    -8.006388    0.208284    1.830893    0.039865    0.356659    3.592282    8.105974    6.220531    0.938784    0.146104    6.334274    22.465462    -5.888974    -6.223775    -11.113654    -11.696987    -13.327745    29.547499    -8.893529    -12.954090    -0.424210    -5.492456    0.867391    -19.446472    -0.853858    -3.296434    8.117640    -9.402444    4.634916    -24.675079    6.086836    19.361231    -53.999298    4.454054    11.563453    7.060167    -2.381640    1.023401    0.016231    11.590570    10.457408    -10.706288    -7.354352    -14.082233    0.034817    -1.525918    -0.038702    -8.368291    -2.179509    -5.004081    2.634866    12.803614    0.074648    4.527525    -5.546541    -11.875106    -2.241296    -3.046725    2.434506    
-4.191901    83.190430    99.969666    -0.919802    -3.422370    178.039719    -2.308058    -8.017089    -0.067938    1.811073    0.092230    0.093102    3.907144    7.992599    6.737475    0.774129    0.288692    6.820096    22.295103    -5.973988    -6.451414    -11.401062    -12.750925    -14.161136    31.378710    -10.623762    -14.476345    0.743024    -6.571114    1.543158    -18.831839    -0.585206    -3.375539    8.510070    -9.424169    4.508008    -24.389669    6.192430    19.191324    -54.081921    4.560774    11.369496    7.144554    -2.463138    1.286871    0.021226    11.848164    10.724615    -10.825375    -7.327096    -14.139055    0.015459    -1.638204    -0.017188    -8.277011    -2.330469    -4.750030    2.642458    12.793869    0.171799    4.352593    -5.661718    -11.856411    -2.309748    -2.947375    2.508495    
-4.008176    83.165024    100.015137    -0.955757    -3.446376    177.482880    -2.505937    -8.023149    -0.380411    1.772222    0.146010    -0.207245    4.270416    7.857560    7.317147    0.591560    0.459426    7.363748    22.068119    -6.032161    -6.719549    -11.753964    -13.906897    -15.131022    33.344090    -12.586915    -16.245754    2.098046    -7.720921    2.400975    -18.133987    -0.256287    -3.468551    8.971245    -9.427412    4.401072    -24.085701    6.265790    18.997849    -54.171329    4.644554    11.141910    7.241973    -2.567519    1.586527    0.025330    12.155415    11.013248    -10.957650    -7.288581    -14.202533    -0.006701    -1.770439    0.007451    -8.173787    -2.497585    -4.473488    2.650932    12.778005    0.279784    4.155024    -5.788648    -11.833223    -2.387441    -2.836170    2.592454    
-3.822070    83.140175    100.063942    -0.994282    -3.470708    176.922333    -2.703309    -8.020962    -0.700778    1.716639    0.192208    -0.514262    4.640793    7.715099    7.903073    0.414703    0.643479    7.913421    21.796471    -6.052372    -7.010465    -12.136445    -15.035570    -16.149204    35.239555    -14.571297    -18.078659    3.513289    -8.799118    3.337249    -17.424068    0.110381    -3.569730    9.464059    -9.407231    4.334660    -23.793064    6.290038    18.800625    -54.260475    4.685368    10.907435    7.343141    -2.685037    1.891711    0.027011    12.484368    11.296062    -11.090648    -7.240015    -14.265530    -0.029497    -1.910142    0.032810    -8.069442    -2.664489    -4.205252    2.658442    12.757077    0.393096    3.953414    -5.914331    -11.806152    -2.466118    -2.723063    2.677445    
-3.643017    83.117393    100.113441    -1.033473    -3.493682    176.384277    -2.889146    -8.010588    -1.010981    1.648393    0.227652    -0.811885    4.993583    7.574696    8.464694    0.256021    0.830557    8.441385    21.496166    -6.039020    -7.312485    -12.521881    -16.064644    -17.158501    36.973045    -16.452877    -19.857483    4.916754    -9.739347    4.268466    -16.741104    0.495362    -3.675548    9.962592    -9.363630    4.312310    -23.523731    6.267436    18.613123    -54.347374    4.680903    10.684916    7.443064    -2.806647    2.185336    0.025461    12.814747    11.561549    -11.218064    -7.183562    -14.324630    -0.052056    -2.049155    0.057918    -7.969317    -2.823307    -3.956984    2.663807    12.732936    0.508652    3.758209    -6.032221    -11.776381    -2.540071    -2.612805    2.757295    
-3.463047    83.095840    100.165703    -1.074859    -3.516548    175.842102    -3.070508    -7.992832    -1.323388    1.564644    0.254799    -1.112290    5.343082    7.431321    9.026895    0.108718    1.027865    8.971234    21.161146    -5.998038    -7.637576    -12.924858    -17.030302    -18.198788    38.625443    -18.300541    -21.645195    6.362766    -10.581220    5.208031    -16.053665    0.910899    -3.790953    10.484298    -9.293365    4.330595    -23.262234    6.205420    18.430187    -54.437889    4.635622    10.471135    7.546549    -2.935141    2.480205    0.020069    13.157478    11.824702    -11.346369    -7.116981    -14.383312    -0.076001    -2.193003    0.084583    -7.868685    -2.982858    -3.711750    2.667409    12.705861    0.631960    3.561356    -6.147758    -11.743543    -2.610502    -2.499803    2.833285    
-3.298981    83.077690    100.215790    -1.114068    -3.537802    175.344330    -3.230142    -7.970378    -1.608060    1.475271    0.272193    -1.386442    5.655983    7.296524    9.537548    -0.014722    1.217752    9.453669    20.830812    -5.939826    -7.953379    -13.305711    -17.846249    -19.165222    40.062729    -19.935074    -23.255726    7.707680    -11.256204    6.041797    -15.425553    1.309528    -3.905891    10.974298    -9.204867    4.384056    -23.029528    6.121940    18.272646    -54.524555    4.561913    10.293666    7.644078    -3.056941    2.749595    0.011619    13.477386    12.063790    -11.463808    -7.047008    -14.437801    -0.099559    -2.328151    0.110830    -7.776202    -3.130598    -3.486945    2.668764    12.680176    0.750484    3.382452    -6.250360    -11.711231    -2.669328    -2.393742    2.896686    
-3.109805    83.058571    100.276146    -1.160631    -3.562930    174.764297    -3.409127    -7.940511    -1.935693    1.361815    0.288860    -1.702456    6.010049    7.134944    10.125107    -0.146807    1.447620    10.009802    20.425098    -5.854892    -8.332957    -13.764426    -18.701994    -20.298937    41.624607    -21.762331    -25.099331    9.276090    -11.932677    6.970521    -14.698719    1.784252    -4.047667    11.549961    -9.073379    4.483947    -22.763975    6.006737    18.103031    -54.630695    4.448983    10.112959    7.760782    -3.199993    3.059147    -0.003102    13.851138    12.343986    -11.600296    -6.955956    -14.503650    -0.129160    -2.487998    0.143825    -7.668302    -3.305239    -3.220986    2.668917    12.651856    0.893941    3.177607    -6.365819    -11.673305    -2.730355    -2.268793    2.962378    
-2.918816    83.041512    100.339981    -1.208856    -3.588819    174.169754    -3.584560    -7.905575    -2.265660    1.238676    0.303494    -2.021150    6.357912    6.960390    10.717733    -0.269363    1.694411    10.571745    19.992128    -5.752442    -8.732062    -14.249955    -19.472637    -21.458609    43.116795    -23.539474    -26.922487    10.870297    -12.513077    7.849989    -13.963784    2.269919    -4.202569    12.139579    -8.906920    4.625915    -22.498381    5.882055    17.951050    -54.743107    4.312113    9.967984    7.883586    -3.345504    3.370516    -0.023632    14.232013    12.634838    -11.738976    -6.852251    -14.575034    -0.162417    -2.654343    0.180916    -7.557395    -3.488151    -2.939444    2.667759    12.627348    1.045629    2.972808    -6.478373    -11.635888    -2.783818    -2.140637    3.019829    
-2.738257    83.027588    100.402924    -1.255234    -3.613167    173.597595    -3.746381    -7.868162    -2.576988    1.118114    0.317866    -2.322357    6.675206    6.782350    11.278449    -0.375367    1.940288    11.104462    19.564018    -5.641916    -9.121255    -14.731104    -20.114929    -22.564457    44.461231    -25.158924    -28.597328    12.378135    -12.979405    8.619345    -13.270355    2.724962    -4.359025    12.702735    -8.714179    4.793991    -22.250687    5.767414    17.829664    -54.852219    4.170780    9.871065    8.004354    -3.481419    3.660799    -0.048997    14.592723    12.922914    -11.871067    -6.742786    -14.648469    -0.197510    -2.816448    0.220073    -7.450503    -3.668397    -2.656262    2.666457    12.611370    1.194923    2.780873    -6.580512    -11.603966    -2.827042    -2.019984    3.066188    
-2.559568    83.015892    100.467468    -1.301180    -3.636742    173.020615    -3.903140    -7.827840    -2.884783    0.998474    0.335628    -2.620569    6.975996    6.592302    11.834386    -0.471303    2.193855    11.633628    19.124056    -5.520420    -9.514816    -15.229550    -20.670551    -23.664967    45.733837    -26.707600    -30.201839    13.860340    -13.375042    9.320736    -12.588966    3.164546    -4.522196    13.265947    -8.483173    4.987742    -22.011919    5.662993    17.733675    -54.960438    4.027239    9.812090    8.128834    -3.612197    3.941875    -0.080582    14.948322    13.224552    -12.002369    -6.623721    -14.727327    -0.235885    -2.981299    0.262914    -7.342247    -3.854549    -2.356490    2.666013    12.605355    1.346935    2.592270    -6.677152    -11.577007    -2.863805    -1.902891    3.105542    
